<svg id="Layer_1" data-name="Layer 1" xmlns="http://www.w3.org/2000/svg" width="303.9" height="249.01" viewBox="0 0 303.9 249.01">
  <title>icon_contact_letter</title>
  <path d="M279.43,195l-4,16.6H517.71c5,0,8.3,3.32,8.3,8.3V419.1c0,5-3.32,8.3-8.3,8.3H240.91L238.76,444h279a24.46,24.46,0,0,0,24.9-24q0-.44,0-.89V219.9a24.46,24.46,0,0,0-24-24.9H275.56" transform="translate(-238.76 -195)"/>
  <path d="M360,228.2c-5,0-8.3,3.32-8.3,8.3v166c0,5,3.32,8.3,8.3,8.3s8.3-3.32,8.3-8.3v-166C368.31,231.52,365,228.2,360,228.2Z" transform="translate(-238.76 -195)"/>
  <path d="M501.11,228.2h-49.8c-5,0-8.3,3.32-8.3,8.3v30.71a48.59,48.59,0,0,1-10.79-1.66L420.6,261.4c-4.15-1.66-9.13.83-10.79,5s.83,9.13,5,10.79l11.62,4.13a51.18,51.18,0,0,0,31.54,0l11.62-4.15a8.4,8.4,0,0,0-5.81-15.77h0l-4.15,2.49V244.8h33.2v49.8c-5,0-8.3,3.32-8.3,8.3s3.32,8.3,8.3,8.3h8.3c5,0,8.3-3.32,8.3-8.3V236.5C509.43,231.52,506.09,228.2,501.11,228.2Z" transform="translate(-238.76 -195)"/>
  <path d="M321.32,311.2h-66c-3.3,0-5.5,3.32-5.5,8.3s2.2,8.3,5.5,8.3h66c3.3,0,5.5-3.32,5.5-8.3S324.62,311.2,321.32,311.2Z" transform="translate(-238.76 -195)"/>
  <path d="M304.43,377.6H246.68c-3.47,0-5.78,3.32-5.78,8.3s2.31,8.3,5.78,8.3h57.75c3.47,0,5.78-3.32,5.78-8.3S307.9,377.6,304.43,377.6Z" transform="translate(-238.76 -195)"/>
  <path d="M288.81,344.4H250.36c-2.88,0-4.81,3.32-4.81,8.3s1.92,8.3,4.81,8.3h38.45c2.88,0,4.81-3.32,4.81-8.3S291.69,344.4,288.81,344.4Z" transform="translate(-238.76 -195)"/>
  <path d="M475.43,292.11c-.83-4.15-5.81-6.64-10-5l-11.62,4.15a29.75,29.75,0,0,1-20.75,0l-11.63-4.13c-4.15-1.66-9.13.83-10.79,5s.83,9.13,5,10.79l11.6,4.08a51.18,51.18,0,0,0,31.54,0l11.65-4.1a8.3,8.3,0,0,0,5.08-10.58Z" transform="translate(-238.76 -195)"/>
</svg>
