<svg xmlns="http://www.w3.org/2000/svg" width="542.62" height="444" viewBox="0 0 542.62 444"><title>icon_contact</title><path d="M315.86,75l-11.62-5.17A20.89,20.89,0,0,0,276.65,80.4L206.48,238.47H188.81v-109a20.92,20.92,0,0,0-20.9-20.9H155.19a20.92,20.92,0,0,0-20.9,20.9v109H119L47.82,113.4a7.79,7.79,0,0,0-3.09-3L11.45,92.76A7.79,7.79,0,0,0,0,99.55l-.45,37.13a7.79,7.79,0,0,0,1,4L56,238.47H39.9a7.79,7.79,0,0,0-7.79,7.79v43.8a7.79,7.79,0,0,0,7.79,7.79h10L69.62,505a7.79,7.79,0,0,0,7.75,7H241.88a7.79,7.79,0,0,0,7.76-7.08l18.82-207.07h9.92a7.79,7.79,0,0,0,7.79-7.79v-43.8a7.79,7.79,0,0,0-7.79-7.79H266.15l60.29-135.9A20.92,20.92,0,0,0,315.86,75Zm-166,54.45a5.33,5.33,0,0,1,5.32-5.32h12.72a5.33,5.33,0,0,1,5.32,5.32v10.77H149.88Zm0,26.35h23.36v82.68H149.88ZM15.17,134.72l.27-22.22,20,10.62L101,238.47H74Zm219.6,361.7H84.45L77.16,420H241.71Zm8.36-92H75.67l-2.77-29H245.76Zm9.69-106.61-5.64,62.07H71.42L65.5,297.84M270.6,254v28.23H47.68V254ZM249.1,238.47H223.53L280.16,110.8l21.34,9.5ZM312.22,96.24l-4.38,9.84-21.34-9.5,4.38-9.84a5.33,5.33,0,0,1,4.87-3.16,5.26,5.26,0,0,1,2.16.46l11.62,5.17A5.33,5.33,0,0,1,312.22,96.24Z" transform="translate(0.43 -68)"/><path d="M279,263l-4,16.6H517.28c5,0,8.3,3.32,8.3,8.3V487.1c0,5-3.32,8.3-8.3,8.3H240.48L238.33,512h279a24.46,24.46,0,0,0,24.9-24.9V287.9a24.46,24.46,0,0,0-24.9-24.9H275.13" transform="translate(0.43 -68)"/><path d="M359.59,296.2c-5,0-8.3,3.32-8.3,8.3v166c0,5,3.32,8.3,8.3,8.3s8.3-3.32,8.3-8.3v-166C367.88,299.52,364.57,296.2,359.59,296.2Z" transform="translate(0.43 -68)"/><path d="M500.68,296.2h-49.8c-5,0-8.3,3.32-8.3,8.3v30.71a48.59,48.59,0,0,1-10.79-1.66l-11.62-4.15c-4.15-1.66-9.13.83-10.79,5s.83,9.13,5,10.79L426,349.32a51.18,51.18,0,0,0,31.54,0l11.62-4.15a8.4,8.4,0,1,0-5.81-15.77l-4.15,2.49V312.8h33.2v49.8c-5,0-8.3,3.32-8.3,8.3s3.32,8.3,8.3,8.3h8.3c5,0,8.3-3.32,8.3-8.3V304.5C509,299.52,505.66,296.2,500.68,296.2Z" transform="translate(0.43 -68)"/><path d="M320.89,379.2h-66c-3.3,0-5.5,3.32-5.5,8.3s2.2,8.3,5.5,8.3h66c3.3,0,5.5-3.32,5.5-8.3S324.19,379.2,320.89,379.2Z" transform="translate(0.43 -68)"/><path d="M304,445.6H246.25c-3.47,0-5.78,3.32-5.78,8.3s2.31,8.3,5.78,8.3H304c3.47,0,5.78-3.32,5.78-8.3S307.47,445.6,304,445.6Z" transform="translate(0.43 -68)"/><path d="M288.38,412.4H249.93c-2.88,0-4.81,3.32-4.81,8.3s1.92,8.3,4.81,8.3h38.45c2.88,0,4.81-3.32,4.81-8.3S291.26,412.4,288.38,412.4Z" transform="translate(0.43 -68)"/><path d="M475,360.11c-.83-4.15-5.81-6.64-10-5l-11.62,4.15a29.75,29.75,0,0,1-20.75,0L421,355.13c-4.15-1.66-9.13.83-10.79,5s.83,9.13,5,10.79L426.81,375a51.18,51.18,0,0,0,31.54,0L470,370.9A8.3,8.3,0,0,0,475,360.11Z" transform="translate(0.43 -68)"/></svg>