<svg xmlns="http://www.w3.org/2000/svg" width="512" height="493.19" viewBox="0 0 512 493.19"><title>icon_desk</title><path d="M218.45,212.6H163.2V196a7.21,7.21,0,0,0-7.21-7.21h-43.2L48,123.92a25.48,25.48,0,0,0,0-24.44L99.78,47.66l2.49,2.49a65.48,65.48,0,0,0,4.81,87.11,7.21,7.21,0,0,0,10.19,0l23.38-23.38A25.51,25.51,0,0,0,176.2,78.33L199.57,55a7.21,7.21,0,0,0,0-10.19A65.37,65.37,0,0,0,112.45,40l-19-19A7.21,7.21,0,1,0,83.23,31.12l6.35,6.35L37.76,89.29a25.54,25.54,0,1,0,0,44.83L92.4,188.76H67.23A7.21,7.21,0,0,0,60,196V212.6H11.75a7.21,7.21,0,0,0-7.21,7.21v41.44a7.21,7.21,0,0,0,7.21,7.21h26.4V504.79A7.21,7.21,0,0,0,45.36,512H211.12a7.21,7.21,0,0,0,7.21-7.21V342.32H423.81V504.79A7.21,7.21,0,0,0,431,512h34.14a7.21,7.21,0,0,0,7.21-7.21V268.46h32.43a7.21,7.21,0,0,0,7.21-7.21V219.81a7.2,7.2,0,0,0-7.21-7.21H410.64M155.3,104.12a11.1,11.1,0,0,1-4.12-.78l14.47-14.47a11.15,11.15,0,0,1-10.35,15.25ZM117.27,55a51,51,0,0,1,66.66-4.74l-71.4,71.39A51.06,51.06,0,0,1,117.27,55ZM25.54,122.82A11.12,11.12,0,1,1,36.66,111.7,11.14,11.14,0,0,1,25.54,122.82Zm48.9,80.35h74.34v9.43H74.44ZM203.91,497.58H52.56V430.82H203.91Zm0-81.18H52.56V349.63H203.91ZM52.56,335.22V268.46H203.91v66.76H52.56Zm371.24-7.32H218.33V268.46H423.81Zm34.14,169.68H438.22V268.46h19.72ZM497.58,254H19V227H497.58v27Z" transform="translate(0 -18.81)"/><path d="M117.17,307.91h16a7.5,7.5,0,0,0,0-15h-16a7.5,7.5,0,0,0,0,15Z" transform="translate(0 -18.81)"/><path d="M117.17,389.91h16a7.5,7.5,0,1,0,0-15h-16a7.5,7.5,0,0,0,0,15Z" transform="translate(0 -18.81)"/><path d="M117.17,471.91h16a7.5,7.5,0,1,0,0-15h-16a7.5,7.5,0,1,0,0,15Z" transform="translate(0 -18.81)"/><path d="M298.33,213.91v-24.5a7.5,7.5,0,0,0-7.5-7.5h-8.5v-17h8.5a7.5,7.5,0,0,0,7.5-7.5v-32a7.5,7.5,0,0,0-7.5-7.5h-80a7.5,7.5,0,0,0-7.5,7.5v24.5h-8.5a7.5,7.5,0,0,0-7.5,7.5v56.5m31-81h65v17h-65Zm-16,32h65v17h-65Zm0,32h81v17h-81Z" transform="translate(0 -18.81)"/><path d="M419.23,213.91h15.46l-4.25-17h38.39a23.53,23.53,0,0,0,23.5-23.5v-80a23.53,23.53,0,0,0-23.5-23.5h-128a23.53,23.53,0,0,0-23.5,23.5v80a23.53,23.53,0,0,0,23.5,23.5h38.39l-4.25,17h15.46M332.33,93.41a8.51,8.51,0,0,1,8.5-8.5h128a8.51,8.51,0,0,1,8.5,8.5v56.5h-145Zm8.5,88.5a8.51,8.51,0,0,1-8.5-8.5v-8.5h145v8.5a8.51,8.51,0,0,1-8.5,8.5Zm78.39,32H390.44l4.25-17H415Z" transform="translate(0 -18.81)"/></svg>