<svg id="Layer_1" data-name="Layer 1" xmlns="http://www.w3.org/2000/svg" width="328.69" height="443.99" viewBox="0 0 328.69 443.99">
  <title>icon_contact_pencils</title>
  <path d="M316.29,7,304.67,1.83A20.89,20.89,0,0,0,277.08,12.4h0L206.91,170.47H189.24v-109a20.92,20.92,0,0,0-20.9-20.9H155.62a20.92,20.92,0,0,0-20.9,20.9v109H119.43L48.25,45.4a7.79,7.79,0,0,0-3.09-3L11.88,24.76A7.79,7.79,0,0,0,.43,31.55L0,68.68a7.79,7.79,0,0,0,1,4l55.45,97.79H40.33a7.79,7.79,0,0,0-7.79,7.79v43.8a7.79,7.79,0,0,0,7.79,7.79h10L70.05,437a7.79,7.79,0,0,0,7.75,7H242.31a7.79,7.79,0,0,0,7.76-7.08l18.82-207.07h9.92a7.79,7.79,0,0,0,7.79-7.79h0v-43.8a7.79,7.79,0,0,0-7.79-7.79H266.58l60.29-135.9A20.92,20.92,0,0,0,316.29,7Zm-166,54.45a5.33,5.33,0,0,1,5.32-5.32h12.72a5.33,5.33,0,0,1,5.32,5.32V72.22H150.31Zm0,26.35h23.36v82.68H150.31ZM15.6,66.72l.27-22.22,20,10.62,65.56,115.35h-27Zm219.6,361.7H84.88L77.59,352H242.14Zm8.36-92H76.1l-2.77-29H246.19Zm9.69-106.61-5.64,62.07H71.85l-5.92-62M271,186v28.23H48.11V186Zm-21.5-15.53H224L280.59,42.8l21.34,9.5ZM312.65,28.24l-4.38,9.84-21.34-9.5,4.38-9.84a5.33,5.33,0,0,1,4.87-3.16,5.26,5.26,0,0,1,2.16.46L310,21.21A5.33,5.33,0,0,1,312.65,28.24Z" transform="translate(0.02 -0.01)"/>
</svg>
