<svg xmlns="http://www.w3.org/2000/svg" width="143.19" height="290" viewBox="0 0 143.19 290">
  <title>icon_resume_tap</title>
  <g id="Layer_2" data-name="Layer 2">
    <path d="M546.67,268.67,564.33,272s32-10,28-20.33S563,242,563,242l-20.67,11.33S534.67,264.33,546.67,268.67Z" transform="translate(-450.1 -126)" fill="#7fc684"/>
    <path d="M533.67,216S550,222,562,216s35.36-24,30.68-40c0,0-36.68-4.67-40.68,0s-25.67,16.33-26.33,24S533.67,216,533.67,216Z" transform="translate(-450.1 -126)" fill="#7fc684"/>
    <path d="M508.67,170.67s3.67-44.33-58.33-44.67c0,0-3,28.33,12.67,37.33S493.67,179.67,508.67,170.67Z" transform="translate(-450.1 -126)" fill="#7fc684"/>
  </g>
  <g id="Layer_3" data-name="Layer 3">
    <polygon points="4.8 189.67 131.8 189.67 131.8 206 98.8 236.67 70.44 209.67 37.47 233.67 4.8 205 4.8 189.67" fill="#bf8d34"/>
    <polygon points="4.8 236.67 37.23 266 68.3 238.33 98.56 266 131.8 235.33 131.8 286.67 4.8 290 4.8 236.67" fill="#bf8d34"/>
  </g>
</svg>
