<svg xmlns="http://www.w3.org/2000/svg" width="490.75" height="512" viewBox="0 0 490.75 512"><title>icon_lamp</title><path d="M135.86,339.74,78.21,229.13a49.73,49.73,0,0,0,8.62-4.1L210.42,462.18H199.66l-46.85-89.89m-14.1,7.35,43,82.55H120.33a24.94,24.94,0,0,0-24.91,24.91v17a8,8,0,0,0,7.95,8H323.83a8,8,0,0,0,8-8v-17a24.94,24.94,0,0,0-24.91-24.91h-26v-26a8,8,0,0,0-8-8H247.52a8,8,0,0,0-7.95,8v26H228.35L99.26,214.48A50.29,50.29,0,0,0,106,159.33L221.7,49.56l11.2,11.2c.14.14.29.26.43.39L230,64.51a24.94,24.94,0,0,0,0,35.23l36.78,36.78a143.34,143.34,0,0,0,29.18,161.09,8,8,0,0,0,11.24,0l48.68-48.69a67.29,67.29,0,0,0,94.5-94.5L499,105.74a8,8,0,0,0,0-11.24,142.9,142.9,0,0,0-44.3-30.2,7.95,7.95,0,1,0-6.33,14.58A126.66,126.66,0,0,1,482,100.29L301.73,280.57a127.45,127.45,0,0,1-18.27-142.11,8,8,0,0,0-1.48-9.21l-5.46-5.46,48.72-48.72,5.46,5.46A8,8,0,0,0,339.91,82,127.26,127.26,0,0,1,416,69.67a7.95,7.95,0,1,0,2.29-15.73A143.06,143.06,0,0,0,338,65.32L301.18,28.54a24.94,24.94,0,0,0-35.23,0L262.53,32c-.13-.14-.25-.29-.39-.43L236.7,6.1a20.56,20.56,0,0,0-28.84-.38L73.6,133.09A50.35,50.35,0,1,0,61,232.17l.88,0,59.9,114.95m133.71,97.07H265v18h-9.54v-18Zm51.41,33.92a9,9,0,0,1,9,9v9H111.32v-9a9,9,0,0,1,9-9ZM84.22,207.24h0a34.45,34.45,0,1,1,11.2-25.42A34.62,34.62,0,0,1,84.22,207.24ZM227.47,32.85a8,8,0,0,0-11.09-.15L96.64,146.29a49.93,49.93,0,0,0-7.39-6.13L218.8,17.25a4.74,4.74,0,0,1,6.65.09l25.44,25.44a5,5,0,0,1,.39.44l-6.69,6.69a4.94,4.94,0,0,1-.44-.38ZM241.22,88.5a9,9,0,0,1,0-12.74l36-36a9,9,0,0,1,6.37-2.64c4.58,0,7.33,3.6,10.28,6.55L245.14,92.41Zm24.05,24.05-8.9-8.9,48.72-48.72,8.9,8.9ZM433.84,232.4a51.49,51.49,0,0,1-66.64,5.18L439,165.76a51.42,51.42,0,0,1-5.19,66.65Z" transform="translate(-10.62 0)"/><path d="M61,156.92a24.91,24.91,0,1,0,24.91,24.91A24.94,24.94,0,0,0,61,156.92Zm0,33.92a9,9,0,1,1,9-9A9,9,0,0,1,61,190.83Z" transform="translate(-10.62 0)"/></svg>