<svg xmlns="http://www.w3.org/2000/svg" width="612.14" height="424" viewBox="0 0 612.14 424"><title>icon_resume</title><path d="M77.33,408a24,24,0,0,1-24-24V40a24,24,0,0,1,24-24l41-3.33V0h-41a40,40,0,0,0-40,40V384a40,40,0,0,0,40,40H117Z" transform="translate(-37.33)"/><path d="M360,416m16,8a40,40,0,0,0,40-40V80a8,8,0,0,0-2.35-5.66l-72-72A8,8,0,0,0,336,0H104A40,40,0,0,0,64,40V384a40,40,0,0,0,40,40M344,27.31,388.69,72H344ZM104,408a24,24,0,0,1-24-24V40a24,24,0,0,1,24-24H328V80a8,8,0,0,0,8,8h64V384a24,24,0,0,1-24,24" transform="translate(-37.33)"/><path d="M224,48H112a8,8,0,0,0-8,8V168a8,8,0,0,0,8,8H224a8,8,0,0,0,8-8V56A8,8,0,0,0,224,48ZM184,160H152V144a16,16,0,0,1,32,0Zm-24-56a8,8,0,1,1,8,8A8,8,0,0,1,160,104Zm56,56H200V144a31.86,31.86,0,0,0-13-25.56A23.78,23.78,0,0,0,192,104a24,24,0,0,0-48,0,23.78,23.78,0,0,0,5,14.44A31.86,31.86,0,0,0,136,144v16H120V64h96Z" transform="translate(-37.33)"/><rect x="210.67" y="72" width="40" height="16"/><rect x="210.67" y="104" width="48" height="16"/><rect x="274.67" y="104" width="40" height="16"/><rect x="210.67" y="136" width="104" height="16"/><rect x="106.67" y="200" width="64" height="16"/><rect x="186.67" y="200" width="48" height="16"/><rect x="250.67" y="200" width="80" height="16"/><rect x="74.67" y="232" width="64" height="16"/><rect x="154.67" y="232" width="128" height="16"/><rect x="298.67" y="232" width="32" height="16"/><rect x="74.67" y="264" width="32" height="16"/><rect x="122.67" y="264" width="96" height="16"/><rect x="234.67" y="264" width="96" height="16"/><rect x="74.67" y="296" width="32" height="16"/><rect x="122.67" y="296" width="96" height="16"/><rect x="234.67" y="296" width="96" height="16"/><rect x="74.67" y="328" width="72" height="16"/><rect x="162.67" y="328" width="112" height="16"/><rect x="74.67" y="360" width="32" height="16"/><rect x="122.67" y="360" width="136" height="16"/><path d="M552.83,253.84a122.19,122.19,0,0,1-14.59,34.66H486.67a4.66,4.66,0,0,0-4.93,4.93v19.73a4.66,4.66,0,0,0,4.93,4.93v88.8H466.93c-3,0-4.93.28-4.93,8.7,0,7.67,2,7.67,4.93,7.67H644.54c3,0,4.93,0,4.93-7.67,0-8.25-2-8.7-4.93-8.7H624.81V318.1a4.66,4.66,0,0,0,4.93-4.93V293.43a4.66,4.66,0,0,0-4.93-4.93H549.42c1.37-2.48,2.94-5.54,4.56-9.1,5.23-5.57,11.85-7.59,21.13-10.38q14.58,6.65,26.51,6.65a36.79,36.79,0,0,0,12.83-2c12.83-4.93,17.27-16.77,19.24-21.21a1.53,1.53,0,0,0,.49-1,4.89,4.89,0,0,0-2.47-6.41l-1-.49c-13.32-7.4-25.65-9.37-36.51-5.92-9.33,2.8-16.89,10-22.27,21.21-4.43,1.41-8.43,2.7-12.13,4.29a118.5,118.5,0,0,0,5.45-44.86,97.51,97.51,0,0,0,17.11,1.6c11.35,0,21.21-2.47,29.11-7.89,11.84-7.4,19.73-19.73,23.19-36.51v-1c1-2.47-1-5.43-3.45-5.92-5.73-1.32-51.19-10.51-70.34,26.89A109.26,109.26,0,0,0,551,174.14a4.58,4.58,0,0,0-.27-1.08c-.39-15.35-5.28-27.52-14.27-36.51-7.4-7.4-22.2-16.28-48.84-15.79h-1a4.66,4.66,0,0,0-4.93,4.93v1c0,5.92-.49,23.68,12.83,37,10.61,10.61,26.87,16,48.32,16.27A96.29,96.29,0,0,1,556,228.38M597.67,248c9.87-3.45,20.23.49,26.15,3.45-2,3.95-5.92,9.87-12.83,12.83-6,2.41-13.39,2.2-22.32-.64a54.91,54.91,0,0,1,10-2.32c2.47,0,4.44-3,3.95-5.43a5.12,5.12,0,0,0-5.92-3.95c-3,.57-6.07,1.28-9.1,2.17A20,20,0,0,1,597.67,248Zm26.64-69.56c-2,7.4-5.92,19.24-17.76,26.64q-13.08,8.5-34.26,5.44l.72-.5c9.87-6.41,17.76-11.84,27.63-14.31,2.47-.49,3.95-3.45,3.45-5.92s-3.45-3.95-5.92-3.45c-10.53,2.75-18.94,8.47-28,14.41C583.46,175.22,611.79,176.24,624.31,178.48ZM491.6,130.62c20.72.49,32.07,6.91,38,12.83a34.42,34.42,0,0,1,9.81,17.32,101.81,101.81,0,0,0-20.67-14.85,5.46,5.46,0,0,0-6.91,2c-1,2.47-.49,5.43,2,6.41a89.17,89.17,0,0,1,20.69,15.42c-14.57-1.29-25.69-5.61-33-13C493.08,148.38,491.6,137,491.6,130.62Zm4.93,209.18L522.68,366a4.77,4.77,0,0,0,6.91,0l26.15-26.15L581.89,366a4.77,4.77,0,0,0,6.91,0l26.15-26.15v15.79l-29.6,29.6L559.19,359a4.77,4.77,0,0,0-6.91,0l-26.15,26.15-29.6-29.6V339.8Zm-4.93-41.44H619.87v9.87H491.6ZM614.94,318.1V326l-29.6,29.6-26.15-26.15a4.77,4.77,0,0,0-6.91,0l-26.15,26.15L496.53,326V318.1ZM496.53,406.9V369.4l26.15,26.15a4.77,4.77,0,0,0,6.91,0l26.15-26.15,26.15,26.15a4.77,4.77,0,0,0,6.91,0l26.15-26.15V406.9Z" transform="translate(-37.33)"/></svg>