<?xml version="1.0" encoding="iso-8859-1"?>
<!-- Generator: Adobe Illustrator 19.0.0, SVG Export Plug-In . SVG Version: 6.00 Build 0)  -->
<svg version="1.1" id="Layer_1" xmlns="http://www.w3.org/2000/svg" xmlns:xlink="http://www.w3.org/1999/xlink" x="0px" y="0px"
	 viewBox="0 0 511.997 511.997" style="enable-background:new 0 0 511.997 511.997;" xml:space="preserve">
<g>
	<g>
		<path d="M499.047,94.495c-12.856-12.857-27.759-23.017-44.296-30.197c-4.03-1.748-8.71,0.1-10.458,4.126
			c-1.748,4.028,0.1,8.71,4.126,10.458c12.279,5.33,23.549,12.515,33.594,21.404L301.73,280.572
			c-34.507-39.03-42-95.142-18.272-142.108c1.549-3.065,0.953-6.778-1.475-9.207l-5.464-5.464l48.716-48.716l5.465,5.465
			c2.401,2.401,6.174,3.005,9.207,1.474c23.533-11.887,49.833-16.159,76.064-12.348c4.333,0.64,8.378-2.379,9.01-6.724
			c0.632-4.346-2.38-8.379-6.724-9.01c-27.558-4.005-55.193-0.067-80.296,11.382L301.184,28.54c-9.712-9.71-25.513-9.712-35.227,0
			l-3.428,3.428c-0.134-0.141-0.254-0.293-0.392-0.43L236.698,6.098c-7.986-7.981-20.653-8.15-28.842-0.378L73.599,133.088
			c-4.108-1.064-8.338-1.611-12.63-1.611c-27.761,0-50.347,22.585-50.347,50.347c0,27.761,22.586,50.348,50.347,50.348
			c0.289,0,0.591-0.024,0.884-0.03l59.902,114.947c2.16,4.144,7.599,5.532,11.487,2.923c3.319-2.227,4.459-6.73,2.614-10.271
			L78.212,229.129c2.997-1.089,5.88-2.461,8.617-4.104l123.589,237.156h-10.757l-46.846-89.895c-2.03-3.894-6.83-5.406-10.724-3.377
			c-3.894,2.029-5.406,6.83-3.377,10.723l43.017,82.548h-61.406c-13.735,0-24.909,11.174-24.909,24.909v16.959
			c0,4.391,3.558,7.95,7.95,7.95h220.469c4.391,0,7.95-3.558,7.95-7.95v-16.959c0-13.735-11.174-24.909-24.909-24.909h-25.969
			v-25.969c0-4.391-3.558-7.95-7.95-7.95h-25.439c-4.391,0-7.95,3.558-7.95,7.95v25.969h-11.223L99.263,214.478
			c7.712-9.059,12.054-20.653,12.054-32.653c0-7.886-1.825-15.547-5.308-22.499L221.702,49.564l11.203,11.204
			c0.138,0.138,0.289,0.259,0.43,0.392l-3.355,3.354c-9.711,9.712-9.711,25.515-0.001,35.226l36.777,36.776
			c-24.823,54.413-13.436,118.477,29.178,161.092c3.062,3.06,8.181,3.06,11.243,0l48.685-48.687
			c12.165,9.591,26.892,14.404,41.628,14.404c17.236,0,34.471-6.56,47.593-19.681c12.712-12.713,19.714-29.615,19.714-47.593
			c0-15.3-5.087-29.81-14.432-41.633l48.682-48.681C502.152,102.632,502.152,97.598,499.047,94.495z M255.469,444.162h9.54v18.019
			h-9.54V444.162z M306.877,478.08c4.968,0,9.01,4.042,9.01,9.01v9.01h-204.57v-9.01c0-4.968,4.043-9.01,9.01-9.01H306.877z
			 M84.224,207.236c-0.002,0.002-0.005,0.004-0.007,0.006c-6.311,5.776-14.689,9.032-23.248,9.032
			c-18.995-0.001-34.448-15.454-34.448-34.449c0-18.995,15.453-34.448,34.448-34.448c4.356,0,8.698,0.825,12.746,2.437
			c12.963,5.163,21.702,18.054,21.702,32.011C95.417,191.46,91.338,200.721,84.224,207.236z M227.47,32.846
			c-3.048-3.047-7.965-3.112-11.094-0.147L96.641,146.295c-2.267-2.283-4.741-4.335-7.393-6.135L218.799,17.252
			c1.887-1.791,4.811-1.755,6.655,0.088l25.438,25.439c0.143,0.143,0.269,0.289,0.386,0.437l-6.694,6.694
			c-0.147-0.116-0.294-0.242-0.437-0.385L227.47,32.846z M241.224,88.498c-3.513-3.512-3.513-9.229,0-12.742l35.976-35.974
			c1.701-1.702,3.964-2.639,6.37-2.639c4.578-0.001,7.334,3.602,10.283,6.55L245.136,92.41L241.224,88.498z M265.275,112.55
			l-8.897-8.897l48.716-48.716l8.897,8.897L265.275,112.55z M433.844,232.401c-18.133,18.131-46.551,19.858-66.643,5.185
			l71.829-71.831c6.405,8.744,9.87,19.252,9.87,30.295C448.9,209.783,443.553,222.692,433.844,232.401z"/>
	</g>
</g>
<g>
	<g>
		<path d="M60.969,156.916c-13.735,0-24.909,11.174-24.909,24.909c0,13.735,11.174,24.909,24.909,24.909
			s24.909-11.174,24.909-24.909S74.704,156.916,60.969,156.916z M60.969,190.834c-4.968,0-9.01-4.043-9.01-9.01
			c0-4.968,4.042-9.01,9.01-9.01s9.01,4.042,9.01,9.01C69.979,186.793,65.937,190.834,60.969,190.834z"/>
	</g>
</g>
<g>
</g>
<g>
</g>
<g>
</g>
<g>
</g>
<g>
</g>
<g>
</g>
<g>
</g>
<g>
</g>
<g>
</g>
<g>
</g>
<g>
</g>
<g>
</g>
<g>
</g>
<g>
</g>
<g>
</g>
</svg>
