<svg id="Layer_1" data-name="Layer 1" xmlns="http://www.w3.org/2000/svg" width="612.14" height="424" viewBox="0 0 612.14 424">
  <title>icon_resume</title>
  <g id="Pages">
    <path d="M376.32,74.34l-72-72A8,8,0,0,0,298.67,0H40A40,40,0,0,0,0,40V384a40,40,0,0,0,40,40H338.67a40,40,0,0,0,40-40V80A8,8,0,0,0,376.32,74.34ZM34.15,407.28A24,24,0,0,1,16,384V40A24,24,0,0,1,34.15,16.72,39.8,39.8,0,0,0,26.67,40V384A39.8,39.8,0,0,0,34.15,407.28Zm272.52-380L351.36,72H306.67Zm56,356.69a24,24,0,0,1-24,24h-272a24,24,0,0,1-24-24V40a24,24,0,0,1,24-24h224V80a8,8,0,0,0,8,8h64Z"/>
    <path d="M186.67,176a8,8,0,0,0,8-8V56a8,8,0,0,0-8-8h-112a8,8,0,0,0-8,8V168a8,8,0,0,0,8,8Zm-40-16h-32V144a16,16,0,1,1,32,0Zm-24-56a8,8,0,1,1,8,8A8,8,0,0,1,122.67,104Zm-40-40h96v96h-16V144a31.86,31.86,0,0,0-13-25.56,24,24,0,1,0-38,0,31.86,31.86,0,0,0-13,25.56v16h-16Z"/>
    <rect x="210.67" y="72" width="40" height="16"/>
    <rect x="210.67" y="104" width="48" height="16"/>
    <rect x="274.67" y="104" width="40" height="16"/>
    <rect x="210.67" y="136" width="104" height="16"/>
    <rect x="106.67" y="200" width="64" height="16"/>
    <rect x="186.67" y="200" width="48" height="16"/>
    <rect x="250.67" y="200" width="80" height="16"/>
    <rect x="74.67" y="232" width="64" height="16"/>
    <rect x="154.67" y="232" width="128" height="16"/>
    <rect x="298.67" y="232" width="32" height="16"/>
    <rect x="74.67" y="264" width="32" height="16"/>
    <rect x="122.67" y="264" width="96" height="16"/>
    <rect x="234.67" y="264" width="96" height="16"/>
    <rect x="74.67" y="296" width="32" height="16"/>
    <rect x="122.67" y="296" width="96" height="16"/>
    <rect x="234.67" y="296" width="96" height="16"/>
    <rect x="74.67" y="328" width="72" height="16"/>
    <rect x="162.67" y="328" width="112" height="16"/>
    <rect x="74.67" y="360" width="32" height="16"/>
    <rect x="122.67" y="360" width="136" height="16"/>
  </g>
  <path id="Pot" d="M607.21,407.63H587.48V318.84a4.66,4.66,0,0,0,4.93-4.93V294.17a4.66,4.66,0,0,0-4.93-4.93H449.34a4.66,4.66,0,0,0-4.93,4.93V313.9a4.66,4.66,0,0,0,4.93,4.93v88.8H429.6c-3,0-4.93.28-4.93,8.7,0,7.67,2,7.67,4.93,7.67H607.21c3,0,4.93,0,4.93-7.67C612.14,408.08,610.14,407.63,607.21,407.63Zm-29.59,0H459.2v-37.5l26.15,26.15a4.77,4.77,0,0,0,6.74.17l.17-.17,26.15-26.15,26.15,26.15a4.77,4.77,0,0,0,6.74.17l.17-.17,26.15-26.15Zm0-51.26L548,386l-26.16-26.24a4.77,4.77,0,0,0-6.74-.17l-.17.17L488.8,385.89l-29.6-29.6V340.54l26.15,26.2a4.77,4.77,0,0,0,6.74.17l.17-.17,26.15-26.15,26.15,26.15a4.77,4.77,0,0,0,6.74.17l.17-.17,26.15-26.15ZM459.2,326.74v-7.9H577.61v7.9L548,356.34l-26.15-26.15a4.77,4.77,0,0,0-6.74-.17l-.17.17L488.8,356.34ZM582.54,309H454.27V299.1H582.54Z"/>
  <path id="Leafs" d="M515.5,254.58a122.19,122.19,0,0,1-14.59,34.66h11.18c1.37-2.48,2.94-5.54,4.56-9.1,5.23-5.57,11.85-7.59,21.13-10.38q14.58,6.65,26.51,6.65a36.79,36.79,0,0,0,12.83-2c12.83-4.93,17.27-16.77,19.24-21.21a1.53,1.53,0,0,0,.49-1,4.89,4.89,0,0,0-2.47-6.41l-1-.49c-13.32-7.4-25.65-9.37-36.51-5.92-9.33,2.8-16.89,10-22.27,21.21-4.43,1.41-8.43,2.7-12.13,4.29A118.5,118.5,0,0,0,527.92,220a97.51,97.51,0,0,0,17.11,1.6c11.35,0,21.21-2.47,29.11-7.89,11.84-7.4,19.73-19.73,23.19-36.51v-1c1-2.47-1-5.43-3.45-5.92-5.73-1.32-51.19-10.51-70.34,26.89a109.26,109.26,0,0,0-9.87-22.31,4.58,4.58,0,0,0-.27-1.08c-.39-15.35-5.28-27.52-14.27-36.51-7.4-7.4-22.2-16.28-48.84-15.79h-1a4.66,4.66,0,0,0-4.93,4.93v1c0,5.92-.49,23.68,12.83,37,10.61,10.61,26.87,16,48.32,16.27a96.29,96.29,0,0,1,13.16,48.42m41.67,19.62c9.87-3.45,20.23.49,26.15,3.45-2,3.95-5.92,9.87-12.83,12.83-6,2.41-13.39,2.2-22.32-.64a54.91,54.91,0,0,1,10-2.32c2.47,0,4.44-3,4-5.43a5.12,5.12,0,0,0-5.92-3.95c-3,.57-6.07,1.28-9.1,2.17A20,20,0,0,1,560.34,248.74ZM587,179.18c-2,7.4-5.92,19.24-17.76,26.64q-13.08,8.5-34.26,5.44l.72-.5c9.87-6.41,17.76-11.84,27.63-14.31,2.47-.49,4-3.45,3.45-5.92s-3.45-3.95-5.92-3.45c-10.53,2.75-18.94,8.47-28,14.41C546.13,176,574.46,177,587,179.22ZM454.27,131.36c20.72.49,32.07,6.91,38,12.83a34.42,34.42,0,0,1,9.81,17.32,101.81,101.81,0,0,0-20.67-14.85,5.46,5.46,0,0,0-6.91,2c-1,2.47-.49,5.43,2,6.41a89.17,89.17,0,0,1,20.69,15.42c-14.57-1.29-25.69-5.61-33-13C455.75,149.12,454.27,137.74,454.27,131.36Z"/>
</svg>
